# xmcd CD database file
#
# Track frame offsets:
#	150
#	22922
#	40095
#	63655
#	92321
#	110261
#	124978
#	140054
#	162079
#	182454
#	210571
#	244896
#	261275
#
# Disc length: 3740 seconds
#
# Revision: 1
# Processed by: cddbd v1.5.2PL0 Copyright (c) Steve Scherf et al.
# Submitted via: Feurio! 1.68 - http://www.feurio.com
#
DISCID=ad0e9a0d
DTITLE=Buddy Guy - Bring `em in
DYEAR=1900
DGENRE=
TTITLE0=Now you`re gone
TTITLE1=Ninety nine and one half
TTITLE2=What kind of woman is this?
TTITLE3=Somebody`s sleeping in bed
TTITLE4=I put a spell on you (feat. Calrlos Santana)
TTITLE5=On a Saturday night
TTITLE6=Ain`t no sunshine (feat. Tracy Chapman)
TTITLE7=I`ve got dream to remember (feat. John Mayer)
TTITLE8=Lay lady lay (feat. A. Hamilton and R. Randolph)
TTITLE9=Cheaper to keep her/Blues in the night
TTITLE10=Cut you loose
TTITLE11=The prince you gotta pay (feat. Keith Richards)
TTITLE12=Do your thing
EXTD=
EXTT0=
EXTT1=
EXTT2=
EXTT3=
EXTT4=
EXTT5=
EXTT6=
EXTT7=
EXTT8=
EXTT9=
EXTT10=
EXTT11=
EXTT12=
PLAYORDER=
